<svg width="36" height="36" viewBox="0 0 36 36" fill="none" xmlns="http://www.w3.org/2000/svg">
<path d="M32.9166 19.79L28.7262 24.3435L19.2559 34.6321L19.0642 34.8402L17.9965 36L15.7579 33.5649L15.5608 33.3509L11.4679 28.9L10.1556 27.4729L9.38079 26.6296L7.07322 24.1206L6.76153 23.7813L3.08343 19.7811C2.35271 18.9769 1.73337 18.0587 1.24528 17.0561C1.20049 16.9664 1.15837 16.8756 1.11716 16.7849C0.244917 14.8702 -0.128289 12.7268 0.0389807 10.5927C0.20625 8.45865 0.90745 6.41735 2.06473 4.6955C3.22201 2.97364 4.79008 1.6386 6.59484 0.8386C8.3996 0.0386037 10.3704 -0.195042 12.2885 0.163602C12.3225 0.169519 12.3566 0.175435 12.3906 0.183325C12.7505 0.253235 13.1066 0.344433 13.4575 0.456518C14.3757 0.748756 15.2534 1.1778 16.066 1.73174C16.1511 1.78993 16.2354 1.8491 16.3187 1.90926C16.9143 2.34265 17.4687 2.84127 17.9732 3.39752L18.0045 3.363L18.0359 3.39752C18.3415 3.06113 18.6655 2.7456 19.006 2.45269C19.0803 2.38858 19.1556 2.32546 19.2308 2.26431C20.3829 1.3291 21.6961 0.662525 23.0902 0.305387C24.4843 -0.0517506 25.9299 -0.0919417 27.3386 0.187271C27.6988 0.257151 28.0553 0.34868 28.4064 0.461448C28.5237 0.497945 28.6402 0.537397 28.7557 0.579799C28.8489 0.613332 28.9421 0.647848 29.0343 0.685326C29.8025 0.987666 30.5358 1.38819 31.2192 1.87869C31.3687 1.98619 31.5162 2.09862 31.6617 2.21599C32.8926 3.20114 33.9149 4.46834 34.6583 5.93031C35.4016 7.39227 35.8483 9.01426 35.9676 10.6846C36.0869 12.3549 35.8759 14.0338 35.3492 15.6057C34.8225 17.1776 33.9926 18.6051 32.9166 19.79Z" fill="#FF477E"/>
</svg>
