<svg width="210" height="264" viewBox="0 0 210 264" fill="none" xmlns="http://www.w3.org/2000/svg">
<path d="M105 216.132C162.99 216.132 210 171.97 210 117.495C210 63.0188 162.99 18.8574 105 18.8574C47.0101 18.8574 0 63.0188 0 117.495C0 171.97 47.0101 216.132 105 216.132Z" fill="#3F3D56"/>
<path d="M38.8937 125.413C41.5014 122.48 44.7629 120.121 48.4476 118.503C52.1323 116.884 56.1505 116.045 60.2182 116.045C64.286 116.045 68.3042 116.884 71.9889 118.503C75.6736 120.121 78.935 122.48 81.5428 125.413C86.005 121.412 89.0891 116.246 90.3977 110.583C91.7063 104.92 91.1794 99.018 88.885 93.6386C86.5905 88.2592 82.6335 83.6486 77.5242 80.4011C72.4148 77.1536 66.3872 75.418 60.2182 75.418C54.0493 75.418 48.0217 77.1536 42.9123 80.4011C37.8029 83.6486 33.846 88.2592 31.5515 93.6386C29.257 99.018 28.7302 104.92 30.0388 110.583C31.3474 116.246 34.4315 121.412 38.8937 125.413Z" fill="white"/>
<path d="M122.278 125.413C124.886 122.48 128.147 120.121 131.832 118.503C135.517 116.884 139.535 116.045 143.603 116.045C147.671 116.045 151.689 116.884 155.373 118.503C159.058 120.121 162.32 122.48 164.927 125.413C169.389 121.412 172.474 116.246 173.782 110.583C175.091 104.92 174.564 99.018 172.269 93.6386C169.975 88.2592 166.018 83.6486 160.909 80.4011C155.799 77.1536 149.772 75.418 143.603 75.418C137.434 75.418 131.406 77.1536 126.297 80.4011C121.187 83.6486 117.231 88.2592 114.936 93.6386C112.642 99.018 112.115 104.92 113.423 110.583C114.732 116.246 117.816 121.412 122.278 125.413Z" fill="white"/>
<path d="M49.6865 104.529C55.5536 104.529 60.3098 100.061 60.3098 94.5499C60.3098 89.0383 55.5536 84.5703 49.6865 84.5703C43.8194 84.5703 39.0632 89.0383 39.0632 94.5499C39.0632 100.061 43.8194 104.529 49.6865 104.529Z" fill="#3F3D56"/>
<path d="M133.063 104.529C138.93 104.529 143.686 100.061 143.686 94.5499C143.686 89.0383 138.93 84.5703 133.063 84.5703C127.196 84.5703 122.439 89.0383 122.439 94.5499C122.439 100.061 127.196 104.529 133.063 104.529Z" fill="#3F3D56"/>
<path d="M29.3395 153.758C36.1618 153.758 41.6924 148.562 41.6924 142.153C41.6924 135.744 36.1618 130.549 29.3395 130.549C22.5172 130.549 16.9866 135.744 16.9866 142.153C16.9866 148.562 22.5172 153.758 29.3395 153.758Z" fill="#FF477E"/>
<path d="M171.395 153.758C178.217 153.758 183.748 148.562 183.748 142.153C183.748 135.744 178.217 130.549 171.395 130.549C164.573 130.549 159.042 135.744 159.042 142.153C159.042 148.562 164.573 153.758 171.395 153.758Z" fill="#FF477E"/>
<path d="M100.366 118.945L91.1016 156.66L106.543 142.154L100.366 118.945Z" fill="#FF477E"/>
<path d="M147.973 264L137.454 255.707L137.699 264H134.432L134.171 255.231L119.97 264H114.025L134.065 251.625L133.289 225.642L132.709 206.018L135.968 205.934L136.556 225.642L137.332 251.602L153.052 264H147.973Z" fill="#3F3D56"/>
<path d="M98.557 264L88.0386 255.707L88.2837 264H85.0255L84.764 255.231L70.5624 264H64.6172L84.6497 251.625L83.874 225.642L83.2941 206.018L86.5605 205.934L87.1486 225.642L87.916 251.602L103.637 264H98.557Z" fill="#3F3D56"/>
<path d="M106.543 11.6043C103.662 11.6043 101.12 13.7067 99.421 16.9359C97.9232 12.0801 94.7765 8.70328 91.1017 8.70328C90.852 8.7266 90.6042 8.7657 90.36 8.82031C88.9475 3.63592 85.6645 0 81.837 0C76.7202 0 72.5723 6.49435 72.5723 14.5055C72.5723 22.5166 76.7202 29.0109 81.837 29.0109C82.0867 28.9876 82.3345 28.9485 82.5787 28.8939C83.9913 34.0783 87.2742 37.7142 91.1017 37.7142C93.9828 37.7142 96.5244 35.6118 98.2237 32.3826C99.7214 37.2384 102.868 40.6152 106.543 40.6152C111.66 40.6152 115.808 34.1209 115.808 26.1098C115.808 18.0987 111.66 11.6043 106.543 11.6043Z" fill="#3F3D56"/>
</svg>
