<svg width="875" height="1000" viewBox="0 0 875 1000" fill="none" xmlns="http://www.w3.org/2000/svg">
<g clip-path="url(#clip0)">
<path d="M5.38938e-08 281.296V212.941C1.302 188.203 11.067 167.371 29.295 150.445C47.523 133.519 69.006 125.056 93.744 125.056H187.488V93.8084C187.488 67.7684 196.602 45.6345 214.83 27.4065C233.058 9.17845 255.192 0.0644531 281.232 0.0644531H593.712C619.752 0.0644531 641.886 9.17845 660.114 27.4065C678.342 45.6345 687.456 67.7684 687.456 93.8084V125.056H781.2C805.938 125.056 827.421 133.519 845.649 150.445C863.877 167.371 873.642 188.203 874.944 212.941V281.296C874.944 298.222 868.76 312.87 856.391 325.239C844.022 337.609 829.375 343.793 812.448 343.792V875.008C812.448 910.162 800.405 939.783 776.318 963.87C752.231 987.958 722.611 1000 687.456 1000H187.488C152.334 1000 122.713 987.957 98.626 963.87C74.5387 939.784 62.4953 910.163 62.496 875.008V343.792C45.57 343.792 30.9223 337.608 18.553 325.239C6.18367 312.871 -0.000666613 298.223 5.38938e-08 281.296H5.38938e-08ZM62.496 281.296H812.448V218.8C812.448 209.686 809.518 202.2 803.659 196.34C797.8 190.481 790.313 187.551 781.199 187.551H93.743C84.629 187.551 77.1423 190.481 71.283 196.34C65.4237 202.2 62.494 209.686 62.494 218.8V281.296H62.496ZM124.992 875.008C124.992 891.934 131.176 906.582 143.545 918.951C155.914 931.321 170.561 937.505 187.488 937.504H687.456C704.382 937.504 719.03 931.32 731.399 918.951C743.768 906.583 749.953 891.935 749.952 875.008V343.792H124.992V875.008V875.008ZM187.488 843.76V437.536C187.488 428.422 190.418 420.936 196.277 415.076C202.136 409.217 209.623 406.287 218.737 406.287H281.233C290.347 406.287 297.834 409.217 303.693 415.076C309.552 420.936 312.482 428.422 312.482 437.536V843.76C312.482 852.874 309.552 860.361 303.693 866.22C297.834 872.08 290.347 875.009 281.233 875.009H218.737C209.623 875.009 202.136 872.08 196.277 866.22C190.418 860.361 187.488 852.874 187.488 843.76ZM218.736 843.76H281.232V437.536H218.736V843.76V843.76ZM249.984 125.056H624.96V93.8084C624.96 84.6944 622.03 77.2078 616.171 71.3484C610.312 65.4891 602.825 62.5595 593.711 62.5595H281.231C272.117 62.5595 264.63 65.4891 258.771 71.3484C252.912 77.2078 249.982 84.6944 249.982 93.8084V125.056H249.984ZM374.976 843.76V437.536C374.976 428.422 377.906 420.936 383.765 415.076C389.624 409.217 397.111 406.287 406.225 406.287H468.721C477.835 406.287 485.322 409.217 491.181 415.076C497.04 420.936 499.97 428.422 499.97 437.536V843.76C499.97 852.874 497.04 860.361 491.181 866.22C485.322 872.08 477.835 875.009 468.721 875.009H406.225C397.111 875.009 389.624 872.08 383.765 866.22C377.906 860.361 374.976 852.874 374.976 843.76ZM406.224 843.76H468.72V437.536H406.224V843.76ZM562.464 843.76V437.536C562.464 428.422 565.394 420.936 571.253 415.076C577.112 409.217 584.599 406.287 593.713 406.287H656.209C665.323 406.287 672.81 409.217 678.669 415.076C684.528 420.936 687.458 428.422 687.458 437.536V843.76C687.458 852.874 684.528 860.361 678.669 866.22C672.81 872.08 665.323 875.009 656.209 875.009H593.713C584.599 875.009 577.112 872.08 571.253 866.22C565.394 860.361 562.464 852.874 562.464 843.76ZM593.712 843.76H656.208V437.536H593.712V843.76Z" fill="#685B7C"/>
</g>
<defs>
<clipPath id="clip0">
<rect width="875" height="1000" fill="white"/>
</clipPath>
</defs>
</svg>
